<mxfile host="app.diagrams.net" modified="2022-11-21T06:19:17.250Z" agent="5.0 (Windows NT 6.1; Win64; x64) AppleWebKit/537.36 (KHTML, like Gecko) Chrome/107.0.0.0 Safari/537.36" etag="bunsHsU7gIx3SnDJpRbn" version="20.5.3" type="github">
  <diagram id="_2NLMvb_C88k_w2NeNGG" name="第 1 页">
    <mxGraphModel dx="1422" dy="762" grid="1" gridSize="10" guides="1" tooltips="1" connect="1" arrows="1" fold="1" page="1" pageScale="1" pageWidth="827" pageHeight="1169" math="0" shadow="0">
      <root>
        <mxCell id="0" />
        <mxCell id="1" parent="0" />
        <mxCell id="QJRy4OxYLuLQxm0T24VA-16" style="edgeStyle=none;rounded=0;orthogonalLoop=1;jettySize=auto;html=1;exitX=0.5;exitY=0.5;exitDx=0;exitDy=0;exitPerimeter=0;" edge="1" parent="1" source="QJRy4OxYLuLQxm0T24VA-1" target="QJRy4OxYLuLQxm0T24VA-5">
          <mxGeometry relative="1" as="geometry" />
        </mxCell>
        <mxCell id="QJRy4OxYLuLQxm0T24VA-1" value="网络管理员" style="shape=umlActor;verticalLabelPosition=bottom;verticalAlign=top;html=1;outlineConnect=0;" vertex="1" parent="1">
          <mxGeometry x="50" y="290" width="30" height="60" as="geometry" />
        </mxCell>
        <mxCell id="QJRy4OxYLuLQxm0T24VA-18" style="edgeStyle=none;rounded=0;orthogonalLoop=1;jettySize=auto;html=1;exitX=1;exitY=0.5;exitDx=0;exitDy=0;entryX=0;entryY=0.5;entryDx=0;entryDy=0;startArrow=none;startFill=0;endArrow=classic;endFill=1;dashed=1;" edge="1" parent="1" source="QJRy4OxYLuLQxm0T24VA-5" target="QJRy4OxYLuLQxm0T24VA-8">
          <mxGeometry relative="1" as="geometry" />
        </mxCell>
        <mxCell id="QJRy4OxYLuLQxm0T24VA-19" style="edgeStyle=none;rounded=0;orthogonalLoop=1;jettySize=auto;html=1;exitX=1;exitY=0.5;exitDx=0;exitDy=0;entryX=0;entryY=0.5;entryDx=0;entryDy=0;startArrow=none;startFill=0;endArrow=classic;endFill=1;dashed=1;" edge="1" parent="1" source="QJRy4OxYLuLQxm0T24VA-5" target="QJRy4OxYLuLQxm0T24VA-9">
          <mxGeometry relative="1" as="geometry" />
        </mxCell>
        <mxCell id="QJRy4OxYLuLQxm0T24VA-5" value="网络配置" style="ellipse;whiteSpace=wrap;html=1;" vertex="1" parent="1">
          <mxGeometry x="200" y="160" width="120" height="70" as="geometry" />
        </mxCell>
        <mxCell id="QJRy4OxYLuLQxm0T24VA-20" value="" style="edgeStyle=none;rounded=0;orthogonalLoop=1;jettySize=auto;exitX=1;exitY=0.5;exitDx=0;exitDy=0;entryX=0;entryY=0.5;entryDx=0;entryDy=0;startArrow=none;startFill=0;endArrow=classic;endFill=1;dashed=1;align=center;html=1;" edge="1" parent="1" source="QJRy4OxYLuLQxm0T24VA-6" target="QJRy4OxYLuLQxm0T24VA-11">
          <mxGeometry relative="1" as="geometry" />
        </mxCell>
        <mxCell id="QJRy4OxYLuLQxm0T24VA-21" style="edgeStyle=none;rounded=0;orthogonalLoop=1;jettySize=auto;html=1;exitX=1;exitY=0.5;exitDx=0;exitDy=0;entryX=0;entryY=0.5;entryDx=0;entryDy=0;startArrow=none;startFill=0;endArrow=classic;endFill=1;dashed=1;" edge="1" parent="1" source="QJRy4OxYLuLQxm0T24VA-6" target="QJRy4OxYLuLQxm0T24VA-12">
          <mxGeometry relative="1" as="geometry" />
        </mxCell>
        <mxCell id="QJRy4OxYLuLQxm0T24VA-6" value="网络状态查询" style="ellipse;whiteSpace=wrap;html=1;" vertex="1" parent="1">
          <mxGeometry x="190" y="440" width="120" height="70" as="geometry" />
        </mxCell>
        <mxCell id="QJRy4OxYLuLQxm0T24VA-8" value="配置IP地址" style="ellipse;whiteSpace=wrap;html=1;" vertex="1" parent="1">
          <mxGeometry x="500" y="100" width="120" height="70" as="geometry" />
        </mxCell>
        <mxCell id="QJRy4OxYLuLQxm0T24VA-9" value="配置添加路由" style="ellipse;whiteSpace=wrap;html=1;" vertex="1" parent="1">
          <mxGeometry x="500" y="220" width="120" height="70" as="geometry" />
        </mxCell>
        <mxCell id="QJRy4OxYLuLQxm0T24VA-11" value="显示IP地址接口" style="ellipse;whiteSpace=wrap;html=1;" vertex="1" parent="1">
          <mxGeometry x="500" y="380" width="120" height="70" as="geometry" />
        </mxCell>
        <mxCell id="QJRy4OxYLuLQxm0T24VA-22" value="《include》" style="rounded=0;whiteSpace=wrap;html=1;fillColor=none;strokeColor=none;" vertex="1" parent="1">
          <mxGeometry x="340" y="390" width="120" height="60" as="geometry" />
        </mxCell>
        <mxCell id="QJRy4OxYLuLQxm0T24VA-12" value="查看路由" style="ellipse;whiteSpace=wrap;html=1;" vertex="1" parent="1">
          <mxGeometry x="500" y="500" width="120" height="70" as="geometry" />
        </mxCell>
        <mxCell id="QJRy4OxYLuLQxm0T24VA-17" style="edgeStyle=none;rounded=0;orthogonalLoop=1;jettySize=auto;html=1;exitX=0.5;exitY=0.5;exitDx=0;exitDy=0;exitPerimeter=0;entryX=0;entryY=0;entryDx=0;entryDy=0;" edge="1" parent="1" source="QJRy4OxYLuLQxm0T24VA-1" target="QJRy4OxYLuLQxm0T24VA-6">
          <mxGeometry relative="1" as="geometry">
            <mxPoint x="180" y="360" as="sourcePoint" />
            <mxPoint x="334.6175495945379" y="260.88618615734754" as="targetPoint" />
          </mxGeometry>
        </mxCell>
        <mxCell id="QJRy4OxYLuLQxm0T24VA-23" value="《include》" style="rounded=0;whiteSpace=wrap;html=1;fillColor=none;strokeColor=none;" vertex="1" parent="1">
          <mxGeometry x="354" y="110" width="120" height="60" as="geometry" />
        </mxCell>
        <mxCell id="QJRy4OxYLuLQxm0T24VA-24" value="《include》" style="rounded=0;whiteSpace=wrap;html=1;fillColor=none;strokeColor=none;" vertex="1" parent="1">
          <mxGeometry x="360" y="225" width="120" height="60" as="geometry" />
        </mxCell>
        <mxCell id="QJRy4OxYLuLQxm0T24VA-25" value="《include》" style="rounded=0;whiteSpace=wrap;html=1;fillColor=none;strokeColor=none;" vertex="1" parent="1">
          <mxGeometry x="340" y="500" width="120" height="60" as="geometry" />
        </mxCell>
      </root>
    </mxGraphModel>
  </diagram>
</mxfile>
